<svg t="1729605591270" class="icon" viewBox="0 0 1024 1024" version="1.1" xmlns="http://www.w3.org/2000/svg" p-id="4327" width="200" height="200"><path d="M972.8 128H179.2A51.2 51.2 0 0 0 128 179.2v793.6A51.2 51.2 0 0 0 179.2 1024h793.6a51.2 51.2 0 0 0 51.2-51.2V179.2A51.2 51.2 0 0 0 972.8 128z m8.533333 844.8a8.533333 8.533333 0 0 1-8.533333 8.533333H179.2a8.533333 8.533333 0 0 1-8.533333-8.533333V179.2a8.533333 8.533333 0 0 1 8.533333-8.533333h793.6a8.533333 8.533333 0 0 1 8.533333 8.533333z" fill="#13227a" p-id="4328"></path><path d="M51.2 853.333333a8.533333 8.533333 0 0 1-8.533333-8.533333V51.2a8.533333 8.533333 0 0 1 8.533333-8.533333h793.6a8.533333 8.533333 0 0 1 8.533333 8.533333 21.333333 21.333333 0 1 0 42.666667 0A51.2 51.2 0 0 0 844.8 0H51.2A51.2 51.2 0 0 0 0 51.2v793.6A51.2 51.2 0 0 0 51.2 896a21.333333 21.333333 0 0 0 0-42.666667z" fill="#13227a" p-id="4329"></path><path d="M768 682.666667V321.28a21.333333 21.333333 0 0 0-26.026667-22.613333l-256 56.32a21.333333 21.333333 0 0 0-16.64 20.906666v328.106667a101.546667 101.546667 0 0 0-67.413333 0 82.773333 82.773333 0 0 0-65.706667 93.866667 73.813333 73.813333 0 0 0 75.093334 48.213333 110.933333 110.933333 0 0 0 32.426666-5.12 85.333333 85.333333 0 0 0 67.413334-85.333333 20.053333 20.053333 0 0 0 0-3.84v-243.2l213.333333-47.36v170.666666a101.973333 101.973333 0 0 0-66.56 0A82.773333 82.773333 0 0 0 593.066667 725.333333a73.813333 73.813333 0 0 0 75.093333 48.213334 110.933333 110.933333 0 0 0 32.426667-5.12A85.333333 85.333333 0 0 0 768 682.666667z m-336.64 117.76c-24.32 7.253333-49.92 0-54.186667-14.506667s10.24-34.56 37.12-42.666667a68.266667 68.266667 0 0 1 20.053334-2.986666 33.28 33.28 0 0 1 34.133333 17.92c4.266667 12.8-10.24 33.706667-37.12 42.24zM512 464.64V394.666667l213.333333-46.933334v69.546667z m175.786667 262.826667c-24.32 7.253333-49.493333 0-54.186667-14.506667s10.24-34.56 37.12-42.666667a67.413333 67.413333 0 0 1 20.053333-2.986666c17.493333 0 31.146667 7.253333 34.133334 17.92s-9.813333 34.133333-37.12 42.24z" fill="#13227a" p-id="4330"></path></svg>